<?xml version="1.0" standalone="no"?>
<!DOCTYPE svg PUBLIC "-//W3C//DTD SVG 20010904//EN"
 "http://www.w3.org/TR/2001/REC-SVG-20010904/DTD/svg10.dtd">
<svg version="1.0" xmlns="http://www.w3.org/2000/svg"
 width="640.000000pt" height="640.000000pt" viewBox="0 0 640.000000 640.000000"
 preserveAspectRatio="xMidYMid meet">

<g transform="translate(0.000000,640.000000) scale(0.100000,-0.100000)"
fill="#000000" stroke="none">
<path d="M0 5774 c0 -530 2 -625 14 -615 7 6 21 8 30 5 12 -5 19 0 23 15 3 11
12 21 19 21 8 0 14 7 14 15 0 20 50 32 61 14 6 -11 9 -10 14 3 4 9 20 21 37
27 16 6 27 15 23 21 -3 6 0 7 9 4 9 -3 16 -10 16 -14 0 -12 79 0 122 18 34 14
53 42 28 42 -5 0 -10 5 -10 10 0 6 12 10 26 10 22 0 25 -2 14 -15 -10 -13 -9
-15 8 -15 12 0 25 7 30 16 6 11 23 17 48 18 22 1 39 6 38 11 -1 12 13 26 49
49 27 18 27 18 27 -3 0 -14 6 -21 20 -21 18 0 19 3 8 20 -17 27 -4 35 32 20
27 -11 32 -10 49 9 20 22 51 29 51 10 0 -8 5 -8 15 1 12 10 13 16 4 26 -8 10
-8 14 -1 14 6 0 14 -4 17 -10 10 -16 45 -12 45 5 0 10 -10 15 -28 15 -16 0
-37 7 -48 15 -18 15 -15 15 36 13 30 -1 61 1 68 5 7 5 12 4 12 -2 0 -6 -5 -11
-11 -11 -5 0 -7 -4 -4 -10 10 -16 42 -12 49 6 4 10 13 13 27 9 13 -4 34 0 55
11 28 15 32 23 28 44 -4 21 -4 22 6 8 15 -25 25 -23 70 13 39 32 45 53 12 43
-14 -5 -14 -4 -3 4 8 6 21 8 28 5 8 -3 29 4 46 16 18 12 10 3 -18 -21 -27 -24
-85 -75 -129 -115 -67 -59 -83 -70 -96 -60 -13 10 -13 10 -3 -4 11 -13 9 -19
-8 -35 -12 -10 -24 -18 -28 -16 -3 1 -6 -1 -6 -5 0 -17 -17 -33 -27 -27 -7 4
-8 2 -4 -4 3 -6 -26 -48 -67 -94 -342 -388 -593 -872 -702 -1353 -15 -66 -31
-133 -35 -150 -8 -28 -9 -29 -15 -7 -8 23 -13 26 -31 14 -25 -16 -25 -48 1
-72 31 -29 35 -71 5 -63 -11 3 -20 9 -20 13 0 4 -9 10 -20 13 -20 5 -20 0 -20
-852 0 -653 3 -860 12 -869 9 -9 9 -12 0 -12 -9 0 -12 -220 -12 -975 l1 -975
268 0 c206 0 270 3 274 13 3 9 9 9 26 -1 14 -8 69 -12 171 -12 l150 0 0 24 c0
17 -7 26 -24 30 -28 7 -39 32 -41 93 -1 31 2 43 12 43 9 0 12 -7 7 -25 -5 -20
-1 -26 21 -35 23 -9 31 -7 47 10 10 11 30 23 43 26 14 3 25 11 25 16 0 6 11
-6 25 -26 35 -52 17 -114 -22 -75 -7 7 -13 7 -17 1 -3 -6 -2 -13 4 -17 5 -3 7
-19 3 -35 -5 -30 -5 -30 39 -30 43 0 45 1 40 26 l-5 26 31 -16 c17 -9 34 -20
37 -26 4 -7 884 -10 2646 -10 l2639 0 0 1018 c0 793 -3 1022 -13 1034 -20 26
-58 30 -64 7 -4 -14 -11 -17 -29 -13 -31 8 -49 -3 -33 -22 8 -10 15 -11 24 -4
9 8 15 8 20 0 9 -15 -5 -32 -22 -26 -10 4 -13 0 -11 -12 2 -9 8 -16 13 -15 6
0 18 -3 28 -9 18 -9 18 -10 0 -23 -10 -8 -24 -10 -32 -5 -8 4 -22 5 -32 3 -11
-3 -21 1 -25 11 -3 9 -12 16 -20 16 -8 0 -14 6 -14 13 0 6 -9 1 -20 -13 -10
-14 -22 -21 -26 -17 -4 4 -17 0 -30 -8 l-22 -14 16 40 c9 23 18 35 22 29 4 -7
7 1 7 17 0 15 24 96 53 178 29 83 69 222 89 310 l37 160 30 -3 c16 -2 35 -9
42 -14 9 -8 12 -5 12 11 0 20 -16 26 -67 24 -7 -1 -13 10 -13 23 0 18 4 22 18
18 12 -4 14 -3 4 4 -8 5 -12 24 -10 48 3 37 4 39 36 36 l32 -4 0 548 0 547
-47 -7 c-27 -3 -53 -2 -60 2 -6 4 -21 45 -33 92 -91 356 -244 692 -458 1005
-42 61 -75 119 -74 130 1 21 -54 85 -73 85 -6 0 -58 52 -115 116 -175 196
-379 370 -620 530 -119 79 -333 194 -449 243 -42 18 -51 25 -40 33 11 8 10 9
-4 4 -10 -3 -55 9 -102 26 -72 28 -81 34 -67 45 9 7 26 13 36 13 25 0 18 6
-19 14 -21 5 -26 4 -15 -3 12 -8 9 -12 -12 -20 -27 -10 -102 5 -93 20 3 4 -3
5 -12 3 -10 -3 -43 4 -73 14 l-55 20 63 0 c35 1 70 6 78 13 8 6 17 9 21 5 3
-3 1 -6 -5 -6 -7 0 -12 -4 -12 -9 0 -10 46 -19 122 -25 44 -3 70 -17 78 -41 4
-14 43 -6 53 11 5 8 12 12 16 9 5 -2 14 2 21 10 7 8 19 15 27 15 8 0 12 4 9 9
-3 5 8 11 24 15 21 4 30 11 30 26 0 11 7 20 15 20 8 0 15 5 15 10 0 6 7 10 15
10 8 0 15 5 15 10 0 14 27 12 33 -3 2 -6 3 -23 2 -37 -1 -14 -3 -33 -4 -43 0
-10 -5 -15 -11 -12 -6 3 -10 -1 -10 -10 0 -9 4 -13 10 -10 5 3 10 -1 10 -9 0
-20 17 -20 52 -2 15 8 28 11 30 6 2 -4 13 -11 26 -15 21 -6 22 -5 11 13 -7 12
-18 18 -24 15 -5 -3 -5 0 1 6 9 10 17 10 32 2 26 -14 35 -14 27 0 -7 11 -4 9
62 -25 19 -10 42 -14 56 -11 17 5 26 2 31 -11 5 -14 15 -16 66 -10 49 6 61 4
66 -8 7 -19 74 -22 105 -6 15 8 23 7 35 -5 15 -14 55 -21 66 -10 3 3 76 7 162
9 111 2 160 7 165 15 6 10 11 9 22 -1 8 -8 32 -15 54 -16 35 -1 66 -4 140 -15
11 -2 30 -9 42 -15 12 -7 40 -12 62 -12 22 0 42 -4 46 -9 3 -5 21 -7 40 -4 26
4 36 2 41 -11 4 -10 18 -16 39 -16 17 0 59 -3 92 -6 48 -5 60 -10 58 -23 -1
-9 0 -10 2 -3 3 6 18 12 34 12 22 0 32 -7 41 -25 8 -18 15 -22 23 -15 9 7 16
6 25 -5 7 -8 19 -15 26 -15 11 0 14 37 14 200 l0 200 -1577 -1 c-868 -1 -1564
-4 -1548 -5 210 -24 271 -38 440 -99 232 -83 340 -157 390 -268 24 -51 27 -54
92 -77 222 -76 508 -226 712 -372 489 -349 861 -844 1060 -1411 22 -65 41
-123 41 -129 0 -6 -11 -2 -23 10 l-24 22 -25 -20 c-28 -22 -84 -25 -172 -11
-57 10 -160 -10 -188 -36 -10 -9 -24 -37 -32 -62 -12 -41 -16 -46 -38 -43 -23
3 -26 -1 -31 -35 -14 -91 -26 -155 -37 -188 -12 -35 -14 -36 -46 -30 -27 5
-34 3 -34 -10 0 -20 -43 -20 -60 0 -7 8 -18 15 -26 15 -7 0 -33 21 -58 46 -25
25 -51 44 -58 42 -7 -3 -14 -22 -16 -43 -6 -67 -108 -142 -140 -102 -5 6 -51
84 -102 172 -50 88 -95 164 -100 168 -6 6 -226 -103 -258 -129 -2 -1 13 -43
32 -93 42 -104 71 -210 81 -298 l7 -63 79 0 c75 0 79 -1 80 -22 3 -53 -4 -66
-26 -48 -18 15 -63 0 -91 -31 -9 -10 -25 -19 -34 -19 -10 0 -23 -6 -30 -14 -8
-11 -24 -13 -61 -9 -45 5 -49 4 -58 -18 -5 -13 -7 -27 -5 -31 2 -3 52 -9 111
-13 112 -8 144 -18 178 -55 15 -17 26 -20 51 -16 21 5 35 2 44 -9 11 -13 -2
-15 -113 -15 l-125 0 -7 -57 c-13 -110 -77 -343 -94 -343 -4 0 -34 17 -67 37
-32 20 -89 53 -125 72 l-66 36 14 40 c8 22 21 72 29 110 8 39 17 78 20 88 5
16 -13 17 -291 17 -234 0 -295 3 -289 13 5 8 3 8 -7 -1 -12 -11 -11 -15 3 -26
10 -7 14 -17 10 -21 -4 -5 -2 -5 5 -1 6 3 56 -19 110 -50 95 -54 145 -89 93
-65 -22 11 -23 10 -8 -2 10 -8 16 -16 13 -18 -2 -3 4 -5 15 -5 10 0 16 4 13 9
-3 5 8 2 23 -7 68 -36 64 -38 -76 -32 -74 3 -145 6 -157 6 -14 0 -23 6 -23 16
0 9 -5 12 -12 8 -7 -4 -8 -3 -4 4 4 6 -4 16 -16 23 -34 17 -99 90 -91 102 3 5
1 7 -5 3 -12 -7 -44 33 -36 46 3 4 16 6 29 4 30 -6 51 16 31 33 -11 9 -15 9
-18 -1 -3 -8 -6 -7 -10 4 -4 9 0 24 8 35 9 10 13 13 10 7 -3 -6 6 -12 22 -12
15 -1 36 -4 47 -6 11 -3 25 -5 30 -5 6 -1 4 -5 -3 -10 -10 -6 -9 -10 7 -14 13
-3 19 -1 14 6 -4 6 2 8 15 5 12 -4 20 -2 16 3 -3 5 4 9 16 9 12 0 18 5 15 10
-3 5 3 10 14 10 12 0 21 5 21 10 0 17 -25 22 -55 10 -37 -14 -96 -3 -88 17 4
10 8 11 13 3 4 -6 22 -10 41 -7 l34 3 -32 8 c-56 14 -36 26 43 26 64 0 75 -2
70 -15 -3 -8 0 -15 6 -15 6 0 5 -6 -3 -17 -13 -17 -12 -17 6 -2 34 27 49 34
41 18 -4 -8 1 -4 11 9 20 25 40 27 245 33 68 1 83 9 51 28 -10 6 -12 11 -6 11
7 0 18 -9 25 -20 25 -39 27 -19 3 23 -14 23 -25 54 -25 70 0 25 3 27 40 27 48
0 48 2 19 116 l-21 83 35 68 c19 37 43 85 53 106 18 40 48 59 83 52 12 -2 20
1 18 8 -1 7 3 11 9 10 5 -1 15 7 22 17 10 16 8 18 -8 17 -11 -1 -20 -6 -20
-12 0 -5 -5 -2 -11 8 -6 9 -15 15 -21 11 -7 -4 -8 2 -2 17 4 13 15 53 25 89
10 36 18 60 18 55 2 -26 99 -115 125 -115 3 0 -4 19 -14 43 -21 46 -40 149
-40 212 l0 40 156 89 c87 49 159 85 164 80 9 -10 278 -473 283 -489 3 -8 40
11 252 135 44 26 113 65 152 89 l72 42 -20 52 c-71 179 -213 434 -326 584 -83
111 -202 248 -215 248 -6 0 -25 -22 -41 -48 l-30 -48 36 -37 c123 -129 76
-234 -138 -309 -33 -11 -72 -24 -87 -27 -21 -5 -37 -25 -75 -91 -26 -47 -54
-85 -62 -85 -7 0 -52 22 -100 49 l-86 49 -80 -13 c-227 -39 -878 -38 -1270 1
-393 39 -857 123 -1188 213 -43 12 -82 19 -86 16 -23 -14 -53 -106 -62 -187
-12 -119 -17 -138 -39 -138 -11 0 -22 -4 -25 -10 -10 -16 -150 -12 -194 6 -30
12 -44 13 -60 4 -12 -6 -21 -8 -21 -5 0 3 31 60 70 127 39 67 70 125 70 128 0
3 -104 66 -232 140 l-231 134 -34 -40 c-72 -83 -238 -345 -301 -476 -41 -84
-74 -139 -84 -142 -10 -2 -18 0 -18 6 0 6 -13 8 -32 4 -18 -4 -45 -7 -59 -7
-20 0 -31 -9 -45 -37 -15 -27 -27 -38 -47 -40 -28 -3 -28 -3 -25 45 3 47 2 48
-29 53 l-32 5 22 55 c19 47 26 55 55 61 42 9 48 15 32 34 -12 14 -15 14 -31
-1 -11 -10 -19 -14 -19 -9 0 14 130 265 172 333 148 235 220 325 433 538 181
181 270 258 287 247 6 -3 8 -1 5 5 -8 11 117 105 140 105 7 0 11 3 8 5 -8 9
34 34 45 27 6 -4 9 -1 8 7 -2 7 5 13 14 13 9 0 20 4 25 9 4 5 3 6 -4 2 -7 -4
-13 -5 -13 -2 0 3 10 10 21 17 12 6 19 7 16 2 -3 -5 3 -9 13 -9 10 0 17 3 14
7 -2 4 -1 9 3 12 5 2 2 2 -4 1 -25 -6 -12 5 42 35 31 18 61 29 67 25 6 -4 8
-3 5 3 -8 13 119 74 139 66 11 -4 15 -2 11 4 -6 10 47 42 77 47 6 1 21 7 33
14 29 16 30 15 43 -8 7 -14 7 -20 0 -20 -5 0 -10 7 -10 15 0 19 -11 19 -36 -1
-12 -10 -14 -14 -4 -11 8 2 22 1 30 -3 24 -13 192 18 215 39 11 10 25 17 32
14 6 -2 18 5 25 16 8 12 17 18 20 15 3 -3 10 8 16 24 9 27 8 29 -11 26 -15 -3
-14 -1 5 6 19 8 31 24 42 58 23 66 78 143 129 179 111 78 210 113 392 137 87
12 -101 14 -1437 15 l-1538 1 0 -626z m2347 210 c-3 -3 -12 -4 -19 -1 -8 3 -5
6 6 6 11 1 17 -2 13 -5z m-47 -14 c-8 -5 -19 -10 -25 -10 -5 0 -3 5 5 10 8 5
20 10 25 10 6 0 3 -5 -5 -10z m-100 -34 c0 -2 -7 -7 -16 -10 -8 -3 -12 -2 -9
4 6 10 25 14 25 6z m-926 -236 c-6 -6 -10 -3 -10 10 0 13 4 16 10 10 7 -7 7
-13 0 -20z m-174 -110 c0 -5 -5 -10 -11 -10 -5 0 -7 5 -4 10 3 6 8 10 11 10 2
0 4 -4 4 -10z m-48 -32 c-12 -11 -72 -17 -72 -7 0 5 17 9 38 10 20 0 31 3 24
6 -6 2 -9 9 -6 15 4 6 10 5 15 -3 4 -8 5 -17 1 -21z m-702 -238 c12 -8 11 -10
-7 -10 -14 0 -23 -6 -23 -15 0 -8 -5 -15 -11 -15 -5 0 -8 3 -6 8 2 4 7 15 10
25 7 19 15 21 37 7z m-182 -44 c-7 -8 -15 -12 -17 -11 -5 6 10 25 20 25 5 0 4
-6 -3 -14z m2690 -971 c-3 -3 -9 2 -12 12 -6 14 -5 15 5 6 7 -7 10 -15 7 -18z
m331 -24 c-13 -42 -16 -45 -44 -35 -15 6 -14 8 1 25 9 10 20 16 25 13 5 -2 11
7 15 21 3 14 8 24 11 21 2 -2 -1 -22 -8 -45z m217 31 c7 -4 8 -15 3 -29 -7
-20 -15 -23 -64 -23 -36 0 -54 4 -50 10 4 6 10 8 15 5 12 -8 50 17 50 32 0 14
28 17 46 5z m-710 -60 c-8 -7 -25 8 -37 31 -11 21 -10 21 15 -2 14 -14 24 -26
22 -29z m188 22 c4 -10 1 -14 -6 -12 -15 5 -23 28 -10 28 5 0 13 -7 16 -16z
m-399 -4 c4 -6 -7 -10 -24 -10 -17 0 -31 5 -31 10 0 6 11 10 24 10 14 0 28 -4
31 -10z m149 -17 c15 -11 16 -14 4 -10 -9 3 -33 9 -52 13 -20 3 -39 11 -43 17
-9 15 67 -1 91 -20z m896 -2 c-14 -27 -2 -27 27 0 l22 22 -9 -32 c-5 -17 -6
-31 -3 -31 4 0 4 -2 1 -5 -2 -3 -22 4 -43 15 -22 11 -48 20 -59 20 -27 0 -11
13 20 16 15 2 32 8 37 13 16 16 20 5 7 -18z m-1170 4 c10 -12 10 -15 -4 -15
-9 0 -16 7 -16 15 0 8 2 15 4 15 2 0 9 -7 16 -15z m509 -46 c36 -22 58 -16 27
7 -19 13 -18 14 10 14 22 0 35 -9 58 -41 l29 -41 -31 16 c-39 20 -67 20 -101
0 -26 -15 -28 -15 -71 25 l-45 41 45 0 c28 0 58 -8 79 -21z m206 4 c-16 -8
-38 -22 -47 -31 -11 -9 -18 -10 -18 -4 0 6 5 14 10 17 8 5 7 11 -1 21 -10 12
-4 14 37 14 l49 -1 -30 -16z m-2415 -54 c0 -11 -4 -19 -9 -19 -10 0 -21 24
-21 47 0 13 3 13 15 3 8 -7 15 -21 15 -31z m820 11 c0 -5 -2 -10 -4 -10 -3 0
-8 5 -11 10 -3 6 -1 10 4 10 6 0 11 -4 11 -10z m30 -37 c0 -8 -31 -36 -35 -31
-10 10 8 46 21 41 8 -3 14 -7 14 -10z m1448 1 c12 -8 22 -25 22 -37 0 -40 46
-154 79 -195 86 -109 195 -177 300 -189 l60 -6 -20 -25 c-10 -14 -17 -27 -14
-30 5 -6 66 38 113 82 l33 31 -26 -47 c-33 -59 -21 -61 56 -8 32 22 61 40 64
40 4 0 -8 -27 -25 -59 -40 -75 -125 -178 -173 -211 -73 -49 -30 -42 110 20 43
19 68 11 44 -13 -9 -9 -11 -8 -5 6 6 17 5 18 -13 6 -12 -7 -29 -26 -39 -43
-17 -30 -17 -31 2 -17 10 8 -1 -4 -25 -25 -125 -111 -324 -229 -458 -271 -52
-16 -54 -16 -101 6 -145 70 -395 234 -327 215 14 -4 11 1 -10 18 -54 42 -120
113 -144 158 -22 40 -23 43 -5 36 10 -4 33 -10 49 -13 29 -6 28 -4 -26 53 -31
32 -60 68 -66 79 -10 19 -8 20 47 21 164 1 362 188 378 356 3 35 11 53 26 63
27 19 66 19 94 -1z m-1791 -606 c-3 -7 -5 -2 -5 12 0 14 2 19 5 13 2 -7 2 -19
0 -25z m118 -54 c-11 -9 -41 -26 -67 -39 -25 -14 -48 -30 -51 -37 -4 -9 -6 -8
-6 3 -1 16 54 73 79 82 8 3 26 6 40 6 25 0 25 0 5 -15z m3805 -9 c7 -9 8 -15
2 -15 -5 0 -12 7 -16 15 -3 8 -4 15 -2 15 2 0 9 -7 16 -15z m-3656 -21 c11 -4
16 -19 16 -50 l0 -43 93 -3 92 -3 -53 -32 -52 -33 -123 4 c-67 3 -132 5 -144
5 -27 1 -37 30 -23 67 13 34 26 44 61 44 18 0 28 6 32 19 3 14 16 21 43 24 22
2 40 4 41 5 1 1 8 -1 17 -4z m553 -49 c3 -9 3 -19 -1 -22 -8 -9 -37 18 -30 28
8 14 24 11 31 -6z m-153 -11 c25 -9 19 -24 -9 -24 -16 0 -25 6 -25 15 0 16 9
19 34 9z m-77 -50 c5 -16 -29 -27 -38 -12 -4 6 -5 16 -2 21 7 11 35 5 40 -9z
m2219 -25 c-2 -23 -11 -46 -18 -50 -16 -10 -108 -12 -108 -2 0 14 95 92 113
93 15 0 17 -6 13 -41z m201 18 c10 -12 33 -33 52 -46 32 -23 33 -25 15 -38
-15 -11 -38 -13 -104 -7 -47 4 -90 7 -97 7 -14 0 -3 25 35 75 30 39 71 43 99
9z m-442 -58 c-8 -12 -35 -12 -35 0 0 11 22 20 33 14 4 -2 5 -9 2 -14z m-2550
-99 c8 0 19 -9 25 -20 10 -18 7 -24 -12 -21 -5 0 -8 -3 -8 -7 0 -5 -7 -9 -15
-9 -11 0 -15 11 -14 41 0 23 3 35 6 29 2 -7 11 -13 18 -13z m2453 9 c-2 -6 3
-14 10 -16 8 -3 10 1 6 11 -4 10 -1 16 8 16 17 0 17 -42 1 -47 -5 -2 -22 1
-38 7 -22 9 -25 13 -15 25 15 18 31 20 28 4z m-2278 -19 c0 -5 23 -10 50 -10
36 0 50 -4 50 -14 0 -14 -82 -29 -107 -19 -15 6 -18 53 -3 53 6 0 10 -4 10
-10z m-1067 -30 c3 -11 1 -20 -4 -20 -5 0 -9 9 -9 20 0 11 2 20 4 20 2 0 6 -9
9 -20z m1207 10 c0 -5 -7 -10 -15 -10 -8 0 -15 5 -15 10 0 6 7 10 15 10 8 0
15 -4 15 -10z m80 -9 c0 -5 -11 -8 -25 -7 -33 1 -33 16 0 16 14 0 25 -4 25 -9z
m2060 -54 c-8 -9 -9 -7 -4 8 6 16 5 18 -7 8 -21 -20 -31 -15 -11 5 14 15 18
16 26 4 5 -8 3 -19 -4 -25z m-3095 3 c4 -6 11 -8 16 -5 5 4 9 0 10 -7 0 -7 2
-23 5 -36 2 -13 1 -21 -3 -19 -5 2 -25 12 -45 22 -51 24 -50 45 4 54 4 0 10
-4 13 -9z m-195 -23 c0 -13 -9 -32 -20 -42 -11 -10 -20 -14 -20 -9 0 5 -5 2
-10 -6 -8 -13 -10 -13 -10 2 0 9 5 20 10 23 6 3 10 17 10 31 0 17 5 24 20 24
14 0 20 -7 20 -23z m4850 10 l45 -2 5 -150 5 -150 155 -5 c85 -3 139 -7 120
-9 -32 -4 -33 -4 -7 -8 15 -2 27 -9 27 -14 0 -5 -15 -6 -34 -3 -19 3 -37 0
-41 -6 -3 -6 -11 -8 -16 -5 -5 4 -9 -3 -9 -15 0 -14 4 -19 13 -14 8 6 8 3 -1
-9 -14 -17 -8 -42 8 -32 5 3 12 0 16 -6 3 -6 0 -15 -7 -20 -11 -6 -10 -9 4
-15 21 -8 22 -24 2 -24 -8 0 -15 -4 -15 -10 0 -5 7 -10 16 -10 24 0 12 -35
-14 -38 -12 -2 -22 -10 -22 -19 0 -13 -3 -13 -15 -3 -13 11 -14 10 -9 -3 4
-11 21 -17 52 -20 26 -2 -80 -4 -235 -5 l-283 -2 0 39 c0 32 3 39 18 36 9 -1
16 -8 14 -14 -2 -9 3 -9 16 -2 22 12 64 11 73 -2 12 -16 47 11 47 37 0 19 -7
25 -31 30 -22 5 -28 9 -20 17 13 13 1 62 -21 84 -13 13 -15 13 -19 -3 -3 -10
-5 -6 -6 11 -1 25 1 27 27 21 36 -9 20 8 -21 22 -26 9 -31 16 -29 35 2 15 -5
32 -18 44 -20 18 -20 18 -20 -53 0 -74 10 -89 36 -54 12 15 13 14 14 -11 0
-16 -4 -26 -9 -23 -5 4 -16 3 -25 0 -12 -5 -17 -22 -18 -68 -1 -33 -5 52 -8
189 -4 192 -8 249 -17 248 -7 -2 -13 1 -13 6 0 18 25 21 125 15 55 -3 120 -6
145 -7z m-2661 -13 c2 -2 -17 -4 -43 -4 -27 0 -45 4 -41 9 5 9 73 4 84 -5z
m28 -68 c0 -8 -5 -12 -11 -10 -7 3 -20 -2 -31 -11 -20 -15 -20 -15 -1 -30 17
-13 17 -15 3 -21 -10 -3 -17 -13 -17 -21 0 -9 6 -13 15 -9 8 3 15 0 15 -5 0
-7 -11 -9 -27 -6 -37 7 -77 -9 -69 -28 7 -20 -18 -20 -38 0 -8 8 -17 11 -20 6
-4 -5 -20 -12 -36 -16 -17 -4 -27 -11 -24 -17 3 -5 15 -7 26 -5 15 4 17 3 8
-8 -17 -20 -49 -7 -45 18 4 22 4 22 -13 2 -16 -19 -58 -23 -47 -5 3 5 13 6 23
3 9 -3 14 -3 10 2 -7 7 27 30 147 99 l50 29 -30 -33 c-23 -24 -25 -29 -8 -19
12 7 27 23 33 35 9 15 66 58 86 64 0 0 1 -6 1 -14z m434 -35 c6 10 9 4 10 -21
1 -26 3 -29 6 -11 3 13 8 20 11 15 14 -18 92 -54 119 -54 16 0 39 7 51 16 13
9 34 14 48 11 18 -3 24 -1 20 9 -8 22 25 17 51 -8 13 -12 23 -30 23 -40 0 -10
9 -27 20 -38 20 -20 27 -50 11 -50 -5 0 -9 -10 -10 -22 0 -13 -2 -32 -3 -43
-2 -11 -48 -76 -102 -145 -55 -69 -114 -143 -132 -165 -26 -33 -43 -43 -99
-59 l-68 -19 -57 60 c-31 33 -65 63 -76 67 -18 6 -20 12 -13 64 4 31 16 81 27
110 16 41 17 52 7 48 -8 -3 3 12 24 33 51 51 91 136 105 224 8 55 12 64 14 38
3 -25 6 -31 13 -20z m-2511 -3 c0 -6 8 -21 18 -32 16 -18 42 -87 42 -110 0 -9
-78 -7 -84 3 -3 4 -35 11 -71 13 -36 3 -72 11 -80 18 -19 16 -20 51 -1 44 7
-3 23 7 35 23 33 41 141 73 141 41z m108 -163 l0 -30 -7 30 c-4 17 -12 29 -18
28 -7 -1 -7 13 1 45 l11 47 7 -45 c3 -25 6 -58 6 -75z m725 101 c4 -10 1 -13
-8 -9 -8 3 -12 9 -9 14 7 12 11 11 17 -5z m32 4 c3 -5 1 -10 -4 -10 -6 0 -11
5 -11 10 0 6 2 10 4 10 3 0 8 -4 11 -10z m35 -60 c6 -11 8 -20 6 -20 -3 0 -10
9 -16 20 -6 11 -8 20 -6 20 3 0 10 -9 16 -20z m570 10 c0 -5 -10 -10 -22 -10
-19 0 -20 2 -8 10 19 13 30 13 30 0z m275 -40 c-3 -5 -12 -10 -18 -10 -7 0 -6
4 3 10 19 12 23 12 15 0z m1174 -40 c-23 -27 -44 -50 -47 -50 -2 0 1 6 7 13 6
8 7 18 3 22 -4 5 -1 5 6 1 9 -6 12 -2 10 10 -2 11 2 18 8 17 7 -1 20 7 29 17
37 41 25 18 -16 -30z m2688 28 c-3 -8 -6 -5 -6 6 -1 11 2 17 5 13 3 -3 4 -12
1 -19z m-4669 -33 c-3 -3 -9 2 -12 12 -6 14 -5 15 5 6 7 -7 10 -15 7 -18z
m4482 15 c0 -5 -7 -10 -15 -10 -8 0 -15 5 -15 10 0 6 7 10 15 10 8 0 15 -4 15
-10z m177 -52 c-3 -8 -6 -5 -6 6 -1 11 2 17 5 13 3 -3 4 -12 1 -19z m-4983
-44 c9 -8 16 -23 16 -31 0 -14 -3 -14 -20 2 -11 10 -20 24 -20 32 0 17 5 17
24 -3z m3896 -34 c0 -5 -5 -10 -11 -10 -5 0 -7 5 -4 10 3 6 8 10 11 10 2 0 4
-4 4 -10z m17 -22 c-3 -8 -6 -5 -6 6 -1 11 2 17 5 13 3 -3 4 -12 1 -19z
m-4262 2 c-3 -5 7 -7 26 -5 31 4 31 4 12 -15 -23 -21 -62 -28 -82 -16 -10 6
-12 5 -7 -2 4 -7 4 -13 -1 -13 -64 -10 -63 0 5 36 54 28 55 28 47 15z m1779
-15 c-9 -14 -18 -25 -21 -25 -5 0 5 18 20 38 17 22 18 13 1 -13z m-1250 -49
c-3 -9 -10 -13 -16 -10 -5 3 -4 12 3 20 15 18 22 13 13 -10z m3513 -102 c227
-134 223 -130 174 -172 -14 -11 -13 -13 7 -18 12 -4 22 -11 22 -16 0 -5 5 -6
11 -2 6 3 4 -8 -5 -24 -9 -17 -21 -34 -27 -38 -7 -4 -7 1 1 16 13 24 8 36 -10
25 -7 -5 -10 -19 -6 -37 9 -46 -6 -64 -53 -63 -30 0 -41 -4 -43 -15 0 -8 -2
-20 -2 -27 -2 -17 -45 -73 -56 -73 -12 0 -13 47 -1 54 16 11 20 46 4 46 -10 0
-12 -6 -8 -21 5 -15 4 -19 -4 -15 -6 4 -11 14 -11 22 0 7 -16 64 -37 126 -33
103 -105 242 -164 317 -19 24 -24 41 -12 41 4 0 103 -57 220 -126z m233 106
c0 -5 -4 -10 -10 -10 -5 0 -10 5 -10 10 0 6 5 10 10 10 6 0 10 -4 10 -10z
m-2425 -40 c-3 -5 -12 -10 -18 -10 -7 0 -6 4 3 10 19 12 23 12 15 0z m42 -6
c-3 -3 -12 -4 -19 -1 -8 3 -5 6 6 6 11 1 17 -2 13 -5z m-507 -14 c0 -5 -5 -10
-11 -10 -5 0 -7 5 -4 10 3 6 8 10 11 10 2 0 4 -4 4 -10z m133 -7 c-7 -2 -19
-2 -25 0 -7 3 -2 5 12 5 14 0 19 -2 13 -5z m543 -53 c23 -12 45 -28 48 -36 3
-9 1 -12 -4 -9 -13 8 -13 -1 1 -27 8 -15 8 -19 0 -14 -6 4 -11 2 -11 -4 0 -6
7 -13 15 -16 20 -8 19 -21 -2 -27 -42 -11 37 -5 102 7 39 8 71 13 73 11 8 -7
-46 -74 -63 -79 -33 -9 -192 -7 -219 4 -18 6 -26 17 -26 34 0 22 3 23 48 20
l47 -3 -43 10 c-24 6 -45 16 -48 24 -6 14 24 125 34 125 3 0 25 -9 48 -20z
m-2027 -9 c19 -12 5 -31 -23 -31 -25 0 -51 22 -39 33 9 10 45 8 62 -2z m1655
-6 c-4 -9 -16 -21 -28 -27 -19 -10 -19 -9 3 16 28 30 33 32 25 11z m996 5 c0
-5 -5 -10 -11 -10 -5 0 -7 5 -4 10 3 6 8 10 11 10 2 0 4 -4 4 -10z m-110 -45
c14 -8 21 -14 15 -14 -5 0 -21 6 -35 14 -14 8 -20 14 -15 14 6 0 21 -6 35 -14z
m-220 -39 c0 -2 -8 -10 -17 -17 -16 -13 -17 -12 -4 4 13 16 21 21 21 13z
m2890 -6 c0 -5 -7 -10 -15 -10 -8 0 -15 5 -15 10 0 6 7 10 15 10 8 0 15 -4 15
-10z m-950 -40 c0 -5 -5 -12 -12 -16 -7 -5 -8 -3 -3 6 6 10 4 12 -8 7 -17 -6
-23 4 -11 16 8 7 34 -3 34 -13z m-2581 -26 c-28 -30 -35 -30 -49 -1 -11 21
-10 21 4 3 15 -19 16 -19 36 -1 11 10 17 22 13 28 -4 6 -1 7 6 2 9 -5 7 -13
-10 -31z m3507 -5 c-9 -19 -15 -29 -16 -22 0 15 22 64 27 60 2 -2 -3 -19 -11
-38z m-2925 2 c-11 -15 -17 -32 -13 -36 4 -5 1 -5 -6 -1 -9 6 -7 14 8 37 12
16 24 29 26 29 3 0 -4 -13 -15 -29z m-681 -33 c0 -4 10 -16 22 -28 18 -17 19
-20 5 -20 -9 0 -17 4 -17 9 0 5 -12 24 -27 42 -24 27 -24 30 -5 18 12 -8 22
-17 22 -21z m957 10 c-3 -8 -6 -5 -6 6 -1 11 2 17 5 13 3 -3 4 -12 1 -19z
m1400 -165 c37 -123 53 -191 49 -208 -4 -15 -24 -45 -45 -68 -20 -23 -45 -53
-54 -66 -9 -14 -27 -25 -39 -27 -13 -1 -54 -5 -93 -9 -61 -6 -72 -5 -87 11
-15 17 -108 277 -112 314 -1 8 -12 46 -24 84 -12 38 -20 72 -17 75 8 8 335 80
354 78 9 -1 33 -67 68 -184z m-1617 151 c0 -2 -9 -4 -21 -4 -11 0 -18 4 -14
10 5 8 35 3 35 -6z m123 -9 c-3 -9 -8 -14 -10 -11 -3 3 -2 9 2 15 9 16 15 13
8 -4z m2725 -10 c-3 -3 -9 2 -12 12 -6 14 -5 15 5 6 7 -7 10 -15 7 -18z
m-2995 -9 c-10 -13 -49 -65 -87 -115 -38 -50 -72 -88 -76 -86 -14 9 -63 174
-56 190 4 10 21 15 53 16 109 4 165 8 171 13 14 15 12 3 -5 -18z m307 4 c0 -5
-10 -14 -22 -20 -22 -10 -22 -10 -4 4 10 8 15 20 10 27 -4 8 -3 10 4 5 7 -4
12 -11 12 -16z m2669 -48 c-11 -33 -29 -43 -29 -16 0 8 4 13 9 10 5 -3 12 6
15 20 4 15 9 24 12 22 2 -3 -1 -19 -7 -36z m-2791 -7 c-3 -3 -9 2 -12 12 -6
14 -5 15 5 6 7 -7 10 -15 7 -18z m2747 -44 c-3 -6 -11 -11 -17 -11 -6 0 -6 6
2 15 14 17 26 13 15 -4z m-2380 -1 c3 -6 -1 -7 -9 -4 -18 7 -21 14 -7 14 6 0
13 -4 16 -10z m1415 -11 c0 -5 -4 -9 -10 -9 -5 0 -10 7 -10 16 0 8 5 12 10 9
6 -3 10 -10 10 -16z m981 -6 c-12 -20 -14 -14 -5 12 4 9 9 14 11 11 3 -2 0
-13 -6 -23z m-997 -25 c-3 -4 -11 -5 -19 -1 -21 7 -19 12 4 10 11 0 18 -5 15
-9z m-2948 -34 c-30 -21 -42 -17 -15 5 13 11 26 17 29 14 3 -2 -4 -11 -14 -19z
m4414 0 c0 -8 -4 -14 -10 -14 -5 0 -10 9 -10 21 0 11 5 17 10 14 6 -3 10 -13
10 -21z m-4473 9 c-4 -3 -2 -12 4 -19 7 -8 6 -14 -2 -20 -7 -4 -9 -3 -6 3 4 6
0 13 -8 17 -20 7 -19 26 2 26 9 0 13 -3 10 -7z m2404 -21 c-13 -2 -27 0 -32 5
-6 6 3 7 23 4 28 -4 29 -6 9 -9z m549 -37 c0 -8 -6 -15 -14 -15 -17 0 -28 14
-19 24 12 12 33 6 33 -9z m-1603 -1 c-3 -3 -12 -4 -19 -1 -8 3 -5 6 6 6 11 1
17 -2 13 -5z m3108 -4 c3 -5 1 -10 -4 -10 -6 0 -11 5 -11 10 0 6 2 10 4 10 3
0 8 -4 11 -10z m-1515 -27 c0 -5 -7 -16 -14 -26 -11 -14 -15 -15 -19 -4 -3 8
0 20 6 26 13 13 27 15 27 4z m-1775 -43 c3 -6 -1 -7 -9 -4 -18 7 -21 14 -7 14
6 0 13 -4 16 -10z m3305 1 c0 -6 -4 -13 -10 -16 -5 -3 -10 1 -10 9 0 9 5 16
10 16 6 0 10 -4 10 -9z m-155 -11 c3 -5 1 -10 -4 -10 -6 0 -11 5 -11 10 0 6 2
10 4 10 3 0 8 -4 11 -10z m-55 -11 c0 -5 -4 -7 -10 -4 -5 3 -10 1 -10 -6 0 -7
-3 -10 -6 -6 -8 7 4 27 17 27 5 0 9 -5 9 -11z m-4390 -155 c0 -2 -7 -4 -15 -4
-8 0 -15 4 -15 10 0 5 7 7 15 4 8 -4 15 -8 15 -10z m-915 -4 c3 -5 -1 -10 -9
-10 -9 0 -16 5 -16 10 0 6 4 10 9 10 6 0 13 -4 16 -10z m75 -15 c0 -8 -9 -15
-20 -15 -20 0 -26 11 -13 23 12 13 33 7 33 -8z m3964 -1 c13 -5 8 -12 -20 -35
-45 -36 -65 -27 -28 12 15 16 29 29 30 29 1 0 9 -3 18 -6z m-3930 -30 c20 -8
11 -24 -14 -24 -13 0 -17 5 -14 15 7 17 7 17 28 9z m76 -5 c0 -13 -20 -21 -38
-14 -12 5 -13 8 -4 14 16 10 42 10 42 0z m1888 -9 c-7 -10 -14 -17 -17 -15 -4
4 18 35 25 35 2 0 -1 -9 -8 -20z m141 -34 c-1 -20 -2 -20 -6 -1 -3 11 -10 27
-17 35 -10 13 -9 13 7 1 9 -7 16 -23 16 -35z m1861 15 c0 -8 -81 -61 -94 -61
-3 0 -6 7 -6 15 0 8 6 15 13 15 8 0 22 9 32 20 18 20 55 28 55 11z m-2813 -53
c-3 -7 -5 -2 -5 12 0 14 2 19 5 13 2 -7 2 -19 0 -25z m-1017 -30 c0 -6 6 -8
14 -5 14 5 35 -12 51 -43 6 -12 5 -13 -6 -2 -7 6 -21 12 -30 12 -18 0 -79 55
-79 71 0 5 11 2 25 -7 14 -9 25 -21 25 -26z m-616 6 c3 -8 2 -12 -4 -9 -6 3
-10 -1 -10 -9 0 -19 -16 -21 -26 -4 -4 6 1 17 11 25 23 16 22 16 29 -3z m4406
6 c0 -5 -4 -10 -10 -10 -5 0 -10 5 -10 10 0 6 5 10 10 10 6 0 10 -4 10 -10z
m-2872 -167 c-10 -2 -26 -2 -35 0 -10 3 -2 5 17 5 19 0 27 -2 18 -5z m977 -61
c-3 -3 -11 0 -18 7 -9 10 -8 11 6 5 10 -3 15 -9 12 -12z m-1434 -15 c-10 -9
-11 -8 -5 6 3 10 9 15 12 12 3 -3 0 -11 -7 -18z m3313 -23 c3 -8 2 -12 -4 -9
-6 3 -10 10 -10 16 0 14 7 11 14 -7z m-359 -24 c-3 -5 -12 -10 -18 -10 -7 0
-6 4 3 10 19 12 23 12 15 0z m-2890 -10 c-3 -5 -12 -10 -18 -10 -7 0 -6 4 3
10 19 12 23 12 15 0z m1695 -4 c0 -2 -7 -7 -16 -10 -8 -3 -12 -2 -9 4 6 10 25
14 25 6z m1577 -18 c-3 -8 -6 -5 -6 6 -1 11 2 17 5 13 3 -3 4 -12 1 -19z
m-1417 -12 c-7 -7 -13 -7 -20 0 -6 6 -3 10 10 10 13 0 16 -4 10 -10z m-133
-48 c-3 -8 -6 -5 -6 6 -1 11 2 17 5 13 3 -3 4 -12 1 -19z m-1157 -64 c0 -2 -9
0 -20 6 -11 6 -20 13 -20 16 0 2 9 0 20 -6 11 -6 20 -13 20 -16z m-61 -54 c38
-32 63 -61 66 -78 4 -15 12 -54 20 -86 8 -33 12 -63 9 -67 -2 -4 3 -9 11 -13
19 -7 19 -27 -1 -52 -8 -10 -13 -14 -9 -7 3 7 -2 24 -11 38 -11 16 -14 36 -10
55 3 17 2 30 -2 30 -4 0 -8 18 -8 39 -2 46 -39 85 -118 126 -42 21 -64 25
-140 25 -49 0 -86 3 -82 7 6 7 142 28 198 32 9 0 44 -22 77 -49z m321 46 c0
-3 -4 -8 -10 -11 -5 -3 -10 -1 -10 4 0 6 5 11 10 11 6 0 10 -2 10 -4z m864
-88 c-12 -16 -25 -37 -29 -48 -3 -11 -13 -20 -21 -20 -12 0 -12 3 1 18 9 9 26
31 39 47 24 30 24 31 5 54 -10 13 -19 28 -19 34 0 5 10 -5 23 -24 l24 -34 -23
-27z m-1099 72 c3 -5 1 -10 -4 -10 -6 0 -11 5 -11 10 0 6 2 10 4 10 3 0 8 -4
11 -10z m-582 -20 c-3 -12 -8 -19 -11 -16 -5 6 5 36 12 36 2 0 2 -9 -1 -20z
m944 -2 c-3 -8 -6 -5 -6 6 -1 11 2 17 5 13 3 -3 4 -12 1 -19z m1220 7 c31 -8
83 -15 114 -15 52 0 60 -3 83 -31 14 -16 47 -73 72 -124 46 -93 47 -95 47
-192 -1 -123 -21 -211 -77 -329 -47 -98 -51 -103 -90 -106 -14 -1 -26 -5 -26
-9 0 -4 -15 -9 -32 -11 -18 -3 -42 -9 -52 -13 -14 -6 -17 -5 -12 3 4 7 1 12
-8 12 -9 0 -16 -5 -16 -11 0 -6 -9 -8 -21 -4 -12 4 -34 8 -50 9 -26 2 -74 34
-65 43 2 3 0 18 -4 35 -8 24 -6 29 5 24 19 -7 19 7 1 42 -18 35 -99 79 -158
86 -10 1 -50 46 -41 46 4 0 0 5 -9 11 -20 11 -24 59 -8 90 10 17 14 18 38 6
15 -8 69 -29 120 -47 72 -25 96 -30 105 -21 24 24 -70 71 -142 71 -62 0 -100
34 -101 90 0 61 9 79 49 90 59 16 122 11 185 -15 56 -23 89 -26 56 -5 -49 32
-128 52 -187 48 -35 -2 -63 0 -63 5 0 4 -4 5 -10 2 -13 -8 -13 31 1 57 9 16 8
19 -3 13 -7 -3 -3 2 9 13 13 11 57 34 100 52 104 44 151 39 236 -21 50 -35 59
-38 46 -19 -9 14 -39 38 -67 53 -70 38 -127 38 -223 -1 -86 -35 -130 -57 -125
-63 3 -2 -7 -4 -20 -4 -13 0 -24 5 -24 10 1 23 19 35 68 46 29 6 75 26 103 45
46 31 93 51 126 53 7 1 38 -6 70 -14z m-1386 -22 c-12 -20 -14 -14 -5 12 4 9
9 14 11 11 3 -2 0 -13 -6 -23z m856 5 c-3 -8 -6 -5 -6 6 -1 11 2 17 5 13 3 -3
4 -12 1 -19z m-1299 -8 c62 0 107 -15 144 -48 10 -8 15 -19 11 -25 -3 -5 -1
-7 4 -4 6 4 17 -1 24 -10 8 -9 9 -14 3 -10 -7 4 -14 -5 -18 -23 -5 -27 -7 -29
-32 -20 -15 6 -29 8 -32 5 -3 -3 0 -5 8 -5 10 0 10 -3 0 -15 -7 -8 -20 -15
-29 -15 -11 0 -12 3 -4 8 21 13 -141 0 -176 -14 -42 -18 -34 -30 10 -15 70 24
209 5 209 -30 0 -6 4 -8 9 -5 4 3 6 -5 4 -18 -3 -13 0 -27 6 -30 17 -11 13
-44 -8 -65 -11 -11 -17 -22 -14 -25 4 -3 -16 -6 -43 -6 -53 0 -163 -25 -179
-41 -13 -13 21 -12 47 2 29 16 178 23 178 9 0 -6 4 -8 10 -5 14 8 23 -39 16
-80 -4 -19 -14 -39 -24 -44 -9 -6 -12 -11 -7 -11 16 -2 -98 -39 -122 -39 -37
-1 -35 -19 3 -23 19 -2 38 0 40 4 6 9 24 1 24 -10 0 -4 -10 -12 -22 -17 -13
-6 -22 -18 -22 -27 1 -10 -1 -16 -5 -14 -4 3 -12 -4 -19 -14 -7 -12 -8 -21 -2
-25 6 -3 10 -10 10 -14 0 -15 -65 -73 -104 -93 -23 -11 -43 -24 -46 -29 -8
-11 -58 16 -93 49 -122 117 -198 431 -137 569 22 50 100 137 182 203 44 35 49
37 90 29 24 -4 71 -8 106 -9z m260 -5 c-3 -3 -9 2 -12 12 -6 14 -5 15 5 6 7
-7 10 -15 7 -18z m349 -17 c-3 -8 -6 -5 -6 6 -1 11 2 17 5 13 3 -3 4 -12 1
-19z m-142 -18 c-3 -5 -12 -10 -18 -10 -7 0 -6 4 3 10 19 12 23 12 15 0z
m-904 -17 c11 -15 11 -16 -1 -6 -11 10 -17 10 -29 0 -14 -11 -14 -10 -2 6 7 9
15 17 16 17 1 0 9 -8 16 -17z m1616 -19 c-3 -3 -12 -4 -19 -1 -8 3 -5 6 6 6
11 1 17 -2 13 -5z m-103 -50 c3 -8 2 -12 -4 -9 -6 3 -10 10 -10 16 0 14 7 11
14 -7z m-1801 -249 c-3 -8 -10 -15 -15 -15 -7 0 -6 5 1 13 6 8 7 18 3 22 -4 5
-2 5 5 1 7 -4 10 -13 6 -21z m18 -18 c-10 -9 -11 -8 -5 6 3 10 9 15 12 12 3
-3 0 -11 -7 -18z m-921 -17 c0 -6 -7 -13 -15 -16 -8 -4 -15 -13 -15 -21 0 -17
-22 -13 -28 5 -2 7 3 12 12 12 9 0 16 7 16 15 0 8 7 15 15 15 8 0 15 -5 15
-10z m330 -21 c0 -20 -15 -26 -25 -9 -9 15 3 43 15 35 5 -3 10 -15 10 -26z
m4408 -18 c-7 -2 -14 1 -16 8 -2 6 -9 8 -14 5 -7 -4 -8 -2 -4 4 5 9 12 8 27
-1 12 -7 15 -13 7 -16z m-4938 -156 c0 -8 -6 -15 -14 -15 -8 0 -16 7 -20 15
-4 10 1 15 14 15 11 0 20 -7 20 -15z m1950 -5 c0 -5 -4 -10 -10 -10 -5 0 -10
5 -10 10 0 6 5 10 10 10 6 0 10 -4 10 -10z m-1862 -27 c-4 -20 -18 -26 -37
-14 -18 12 -5 31 20 31 14 0 19 -6 17 -17z m3257 8 c3 -5 2 -12 -3 -15 -5 -3
-9 1 -9 9 0 17 3 19 12 6z m-2955 -41 c0 -5 -4 -10 -10 -10 -5 0 -10 5 -10 10
0 6 5 10 10 10 6 0 10 -4 10 -10z m-70 -97 c0 -7 -7 -16 -15 -19 -20 -8 -65 4
-65 17 0 6 4 7 10 4 5 -3 17 3 27 14 12 15 20 18 30 9 7 -6 13 -17 13 -25z
m258 -30 c2 -8 -6 -13 -22 -13 -17 0 -26 5 -26 16 0 19 41 16 48 -3z m-88 -28
c10 -12 9 -16 -4 -21 -16 -6 -46 11 -46 27 0 15 37 10 50 -6z m-98 -66 c14
-11 33 -19 41 -19 20 0 67 -39 67 -56 0 -10 -12 -14 -43 -14 -24 0 -48 -5 -53
-10 -8 -8 -24 -7 -55 0 -24 6 -51 12 -59 14 -10 2 -14 12 -12 29 4 28 -16 47
-28 26 -5 -7 -6 -17 -4 -21 8 -12 -20 -10 -33 3 -11 11 -11 15 1 53 6 18 7 18
27 0 19 -17 20 -17 25 3 5 19 11 21 52 16 26 -3 59 -14 74 -24z m3895 9 c-3
-8 -6 -5 -6 6 -1 11 2 17 5 13 3 -3 4 -12 1 -19z m-3365 -80 c-9 -9 -15 -9
-24 0 -9 9 -7 12 12 12 19 0 21 -3 12 -12z m86 -15 c-2 -10 -10 -18 -18 -18
-8 0 -16 8 -18 18 -2 12 3 17 18 17 15 0 20 -5 18 -17z m52 -23 c0 -5 -4 -10
-10 -10 -5 0 -10 5 -10 10 0 6 5 10 10 10 6 0 10 -4 10 -10z"/>
<path d="M2861 3534 c0 -11 3 -14 6 -6 3 7 2 16 -1 19 -3 4 -6 -2 -5 -13z"/>
<path d="M3053 3369 c-5 -5 -32 -14 -59 -18 l-49 -9 46 -1 c33 -1 54 5 70 19
13 10 19 19 14 20 -6 0 -16 -5 -22 -11z"/>
<path d="M2865 3349 c4 -5 22 -9 42 -9 20 0 33 3 29 7 -11 11 -77 13 -71 2z"/>
<path d="M5026 2504 c-9 -8 -16 -17 -16 -20 0 -2 41 -3 90 -3 78 1 88 4 73 15
-22 17 -75 18 -91 2 -9 -9 -12 -8 -12 5 0 21 -24 22 -44 1z"/>
<path d="M2369 2873 c-13 -16 -12 -17 4 -4 9 7 17 15 17 17 0 8 -8 3 -21 -13z"/>
<path d="M460 2876 c0 -2 7 -6 15 -10 8 -3 15 -1 15 4 0 6 -7 10 -15 10 -8 0
-15 -2 -15 -4z"/>
<path d="M4956 2315 c-9 -26 -7 -32 5 -12 6 10 9 21 6 23 -2 3 -7 -2 -11 -11z"/>
<path d="M4915 2269 c-11 -17 1 -21 15 -4 8 9 8 15 2 15 -6 0 -14 -5 -17 -11z"/>
<path d="M4932 2238 c-14 -14 -16 -48 -3 -48 9 0 25 49 18 56 -2 2 -9 -2 -15
-8z"/>
<path d="M4510 2219 c-69 -16 -132 -29 -140 -29 -44 -1 -44 -13 8 -176 28 -88
59 -185 68 -217 22 -70 40 -82 103 -72 25 4 58 9 73 10 20 1 43 20 83 64 49
55 55 67 55 104 -1 59 -91 341 -110 344 -8 1 -71 -12 -140 -28z m130 2 c0 9 5
7 11 -5 20 -34 -38 -50 -69 -19 -16 16 -16 16 5 11 12 -3 22 -3 21 1 -2 18 4
22 17 11 12 -10 15 -10 15 1z m-204 -89 c-37 -11 -42 -10 -60 8 -24 24 -16 36
14 20 13 -7 20 -8 16 -2 -9 16 13 25 28 13 10 -9 15 -7 21 6 7 16 9 15 15 -7
6 -23 2 -26 -34 -38z m182 -7 l12 -25 21 21 c20 20 22 20 31 4 13 -23 -8 -47
-22 -25 -6 10 -10 11 -10 3 0 -7 14 -25 31 -40 26 -23 29 -33 24 -59 -3 -18
-1 -35 5 -39 6 -3 7 0 4 9 -3 9 -2 16 3 16 11 0 33 -44 33 -66 0 -18 -29 -64
-41 -64 -14 0 -11 38 4 43 10 4 10 7 0 18 -11 11 -13 10 -13 -4 0 -22 -26 -22
-39 0 -8 14 -12 15 -25 4 -9 -7 -16 -19 -16 -25 0 -6 4 -5 9 3 15 24 23 -7 10
-38 -8 -17 -28 -34 -51 -44 -21 -9 -38 -21 -38 -26 0 -16 -41 -20 -47 -5 -7
19 15 44 38 44 11 0 19 7 19 15 0 8 -4 15 -10 15 -18 0 -11 46 10 65 15 14 17
21 8 26 -14 9 -68 -27 -68 -45 0 -20 -69 -15 -76 6 -8 26 4 38 36 38 38 0 64
39 28 41 -60 3 -97 25 -98 57 0 14 56 17 64 3 3 -5 18 -12 32 -15 20 -5 31 -1
45 15 10 12 19 23 19 24 0 0 -13 0 -29 -1 -24 -1 -30 3 -34 22 -5 30 30 53 84
54 29 0 38 -5 47 -25z m65 -319 c-3 -14 -18 -29 -37 -39 -31 -14 -33 -14 -45
5 -12 19 -11 20 7 16 14 -4 22 0 25 13 3 13 11 17 21 13 9 -3 16 -1 16 5 0 6
4 11 9 11 4 0 6 -11 4 -24z"/>
<path d="M4630 2064 c0 -8 5 -12 11 -8 7 4 10 -3 7 -21 -3 -24 1 -28 25 -31
35 -4 35 15 -1 49 -32 31 -42 34 -42 11z"/>
<path d="M4180 6230 c-11 -7 -9 -11 13 -19 35 -14 34 -14 41 4 4 12 0 14 -21
9 -18 -5 -24 -4 -19 5 9 13 6 14 -14 1z"/>
<path d="M4425 6160 c-7 -11 22 -26 32 -16 4 3 -1 6 -11 6 -9 0 -14 5 -11 10
3 6 4 10 1 10 -3 0 -8 -5 -11 -10z"/>
<path d="M2381 5923 c-9 -10 -10 -18 -2 -26 7 -7 12 -6 17 6 9 25 1 37 -15 20z"/>
<path d="M2026 5865 c-27 -11 -46 -45 -25 -45 5 0 9 6 9 14 0 15 22 26 48 25
14 0 13 -2 -3 -9 -16 -7 -17 -9 -3 -9 22 -1 31 14 15 26 -8 7 -22 6 -41 -2z"/>
<path d="M1920 5815 l-25 -14 26 -1 c15 0 29 7 33 15 7 18 -2 18 -34 0z"/>
<path d="M1880 5791 c0 -7 -4 -9 -10 -6 -5 3 -10 1 -10 -5 0 -6 -6 -8 -12 -4
-7 4 -9 3 -5 -1 13 -15 35 -14 42 2 3 9 3 18 0 21 -3 3 -5 0 -5 -7z"/>
<path d="M1899 5773 c-12 -16 -12 -17 1 -7 8 6 22 14 30 17 13 5 12 6 -1 6 -9
1 -23 -7 -30 -16z"/>
<path d="M1757 5719 c7 -7 15 -10 18 -7 3 3 -2 9 -12 12 -14 6 -15 5 -6 -5z"/>
<path d="M2336 5646 c-8 -42 -18 -46 -34 -11 -6 14 -18 25 -25 25 -21 0 -210
-84 -317 -142 -168 -89 -320 -194 -252 -174 50 15 220 38 383 52 100 8 186 17
191 20 12 7 10 -8 -6 -52 -8 -24 -10 -47 -5 -61 16 -45 178 -128 323 -168 94
-25 124 -31 271 -56 33 -5 71 -12 85 -14 14 -3 135 -14 270 -26 247 -21 475
-22 502 -3 7 6 69 11 138 13 135 2 206 17 261 54 29 20 34 28 31 58 -5 76 -3
109 9 109 5 0 89 -29 186 -64 235 -84 417 -146 429 -146 6 0 18 15 27 33 8 17
30 55 46 84 l31 52 -106 79 c-136 103 -334 221 -484 288 -65 30 -124 54 -131
54 -8 0 -10 -23 -7 -80 4 -76 3 -81 -21 -105 -15 -13 -53 -34 -86 -45 -33 -11
-74 -34 -91 -51 -27 -26 -45 -33 -109 -42 -72 -11 -80 -10 -153 16 -95 33
-162 46 -272 52 -215 12 -625 62 -725 89 -70 19 -232 84 -284 114 -25 15 -49
38 -56 55 l-12 30 -7 -37z"/>
<path d="M1024 5508 l-19 -23 23 19 c21 18 27 26 19 26 -2 0 -12 -10 -23 -22z"/>
<path d="M18 4383 c-22 -5 -25 -53 -4 -53 41 0 76 14 76 30 0 15 -31 33 -50
29 -3 -1 -13 -3 -22 -6z"/>
<path d="M620 4380 c-9 -6 -7 -11 8 -19 28 -15 65 -14 60 1 -6 16 -52 28 -68
18z"/>
<path d="M5042 3818 c3 -7 13 -15 22 -16 12 -3 17 1 14 10 -3 7 -13 15 -22 16
-12 3 -17 -1 -14 -10z"/>
<path d="M7 3743 c-4 -3 -7 -11 -7 -17 0 -6 5 -5 12 2 6 6 9 14 7 17 -3 3 -9
2 -12 -2z"/>
<path d="M3920 3129 l-35 -18 37 -1 c20 0 40 4 43 10 4 6 -1 7 -12 4 -16 -5
-16 -4 1 10 26 21 10 19 -34 -5z"/>
<path d="M3939 2899 c-23 -19 -23 -20 -2 -10 12 6 25 16 28 21 10 16 -1 12
-26 -11z"/>
<path d="M3835 2889 c7 -11 35 -12 35 -1 0 4 -9 8 -20 9 -11 1 -18 -2 -15 -8z"/>
<path d="M4360 2891 c0 -7 -4 -9 -10 -6 -5 3 -10 -2 -10 -11 0 -10 3 -15 6
-11 3 3 17 2 30 -3 29 -11 31 0 4 25 -12 11 -20 13 -20 6z"/>
<path d="M6370 2728 c0 -10 6 -18 13 -18 7 0 13 8 14 18 1 10 -5 19 -13 19 -8
0 -14 -9 -14 -19z"/>
<path d="M6343 2594 c-4 -11 1 -22 12 -30 27 -20 38 -17 32 6 -3 11 -1 20 4
20 5 0 9 5 9 10 0 17 -50 11 -57 -6z"/>
<path d="M6211 2124 c0 -11 3 -14 6 -6 3 7 2 16 -1 19 -3 4 -6 -2 -5 -13z"/>
<path d="M6220 2050 c0 -5 5 -10 11 -10 5 0 7 5 4 10 -3 6 -8 10 -11 10 -2 0
-4 -4 -4 -10z"/>
<path d="M6205 2000 c3 -5 8 -10 11 -10 2 0 4 5 4 10 0 6 -5 10 -11 10 -5 0
-7 -4 -4 -10z"/>
</g>
</svg>
